<?xml version="1.0" standalone="no"?>
<!DOCTYPE svg PUBLIC "-//W3C//DTD SVG 20010904//EN"
 "http://www.w3.org/TR/2001/REC-SVG-20010904/DTD/svg10.dtd">
<svg version="1.0" xmlns="http://www.w3.org/2000/svg"
 width="260.000000pt" height="260.000000pt" viewBox="0 0 260.000000 260.000000"
 preserveAspectRatio="xMidYMid meet">
<metadata>
Created by potrace 1.11, written by Peter Selinger 2001-2013
</metadata>
<g transform="translate(0.000000,260.000000) scale(0.100000,-0.100000)"
fill="#000000" stroke="none">
<path d="M0 1300 l0 -1300 1300 0 1300 0 0 1300 0 1300 -1300 0 -1300 0 0
-1300z m930 765 c0 -55 0 -55 -30 -55 -39 0 -98 -24 -128 -53 -13 -12 -36 -44
-50 -72 -23 -46 -26 -65 -32 -220 -8 -185 -22 -243 -79 -321 l-28 -39 28 -39
c57 -77 71 -136 79 -321 7 -184 17 -225 68 -278 37 -39 94 -67 137 -67 l35 0
0 -55 0 -55 -32 0 c-17 0 -40 8 -51 17 -11 10 -17 12 -12 4 21 -35 -102 26
-151 76 -75 77 -104 177 -104 358 0 177 -39 272 -122 304 -25 9 -28 16 -28 56
0 41 3 46 33 59 19 7 44 26 56 42 46 58 53 92 61 274 8 191 17 229 77 314 52
74 145 125 231 126 l42 0 0 -55z m839 36 c105 -40 180 -133 206 -257 8 -38 15
-121 15 -185 0 -74 5 -134 15 -167 18 -59 65 -119 101 -128 13 -3 25 -9 25
-13 13 -61 5 -101 -20 -101 -25 0 -65 -39 -90 -88 -26 -52 -42 -153 -36 -231
11 -130 -33 -274 -103 -343 -43 -42 -109 -81 -123 -73 -5 4 -9 2 -9 -4 0 -5
-9 -8 -20 -6 -11 2 -22 0 -25 -6 -4 -5 -19 -9 -36 -9 -29 0 -29 1 -29 55 l0
55 33 0 c53 0 118 39 154 92 41 62 53 123 53 272 0 145 21 229 73 298 l33 43
-33 43 c-54 71 -74 155 -78 322 -4 158 -11 194 -51 252 -34 49 -79 76 -138 84
l-46 7 0 53 0 54 40 0 c22 0 62 -8 89 -19z m-389 -724 l0 -133 83 1 c71 0 87
-3 118 -24 57 -39 83 -84 87 -156 3 -48 0 -70 -17 -103 -71 -139 -280 -142
-350 -4 -24 47 -23 41 -22 320 l1 232 50 0 50 0 0 -133z m-190 -147 c22 -11
40 -24 40 -28 0 -4 -17 -25 -38 -45 -27 -26 -41 -34 -49 -26 -12 12 -59 15
-91 5 -25 -8 -52 -53 -52 -86 0 -33 53 -80 90 -80 17 0 39 4 49 10 14 7 26 1
56 -30 l38 -39 -34 -20 c-125 -76 -276 -6 -304 140 -17 93 54 198 150 219 46
11 100 3 145 -20z"/>
<path d="M1414 1116 c-72 -61 9 -184 94 -144 15 7 35 28 44 46 43 87 -64 163
-138 98z"/>
</g>
</svg>
