<svg xmlns="http://www.w3.org/2000/svg" xmlns:xlink="http://www.w3.org/1999/xlink" width="724.282" height="781.424" viewBox="0 0 724.282 781.424">
  <defs>
    <rect id="rect-1" width="652.901" height="717.106" x="35.691" y="32.159"/>
    <mask id="mask-2" maskContentUnits="userSpaceOnUse" maskUnits="userSpaceOnUse">
      <rect width="724.282" height="781.424" x="0" y="0" fill="black"/>
      <use fill="white" xlink:href="#rect-1"/>
    </mask>
  </defs>
  <g opacity=".2">
    <g transform="rotate(-6.000002 362.14118019 390.71215394)">
      <use fill="none" xlink:href="#rect-1"/>
      <g mask="url(#mask-2)">
        <ellipse cx="336.284" cy="501.417" fill="rgb(251,250,246)" rx="246.47" ry="245.968"/>
        <path fill="rgb(251,250,246)" fill-rule="evenodd" d="M688.07141161 322.61034831c0 38.3779321-31.02724602 69.3419455-69.48355094 69.3419455s-67.73553707-28.78344907-65.55051975-64.54470398c2.18501733-35.76125491 33.21226334-66.72526831 69.48355094-69.3419455 36.2712876-2.6166772 65.55051975 26.16677188 65.55051975 64.54470398z"/>
        <path fill="rgb(251,250,246)" fill-rule="evenodd" d="M169.7853021 259.81009579c1.74801387 35.7612549-26.2202079 63.23636539-62.05449202 61.05580107-35.83428413-2.18056433-66.86153015-33.14457773-69.48355094-69.3419455-2.18501732-35.76125492 25.34620097-63.2363654 62.05449203-61.05580107 36.70829106 2.61667719 67.73553708 33.58069059 69.48355094 69.3419455z"/>
        <path fill="rgb(251,250,246)" fill-rule="evenodd" d="M582.75357654 171.27918424c0 51.46131804-39.76731531 90.275363-88.7117034 86.35034722-48.94438808-3.92501578-90.89672072-45.7918508-93.5187415-93.32815306-2.6220208-47.53630226 37.14529452-86.35034722 88.7117034-86.35034722 51.56640886 0 93.5187415 41.43072215 93.5187415 93.32815306z"/>
        <path fill="rgb(251,250,246)" fill-rule="evenodd" d="M199.50153773 115.45673755c-1.74801386-45.35573794 27.96822176-82.86144431 65.98752322-83.29755718 37.58229799-.43611286 71.66856826 30.52790054 75.60159944 68.90583264 3.93303119 38.3779321-25.34620097 75.4475256-65.55051975 82.8614443-40.20431878 6.97780584-74.72759252-23.5500947-76.03860291-68.46971976"/>
      </g>
    </g>
  </g>
</svg>
